<svg width="172" height="161" viewBox="0 0 172 161" fill="none" xmlns="http://www.w3.org/2000/svg">
<path fill-rule="evenodd" clip-rule="evenodd" d="M127.793 43.6726C127.93 42.3003 128 40.9084 128 39.5C128 39.2067 127.997 38.9142 127.991 38.6224C154.252 43.5008 172 52.8135 172 63.5C172 79.2401 133.496 92 86 92C38.5035 92 0 79.2401 0 63.5C0 52.6779 18.2016 43.2646 45.0133 38.4387C45.0045 38.7914 45 39.1452 45 39.5C45 40.8455 45.064 42.1761 45.1892 43.4889C38.3713 44.7445 32.1717 46.3008 26.7617 48.0936C19.2696 50.5765 13.5677 53.4233 9.84204 56.3423C6.05672 59.3082 5 61.7663 5 63.5C5 65.2337 6.05672 67.6919 9.84204 70.6577C13.5677 73.5767 19.2696 76.4235 26.7617 78.9064C41.6929 83.8545 62.6372 87 86 87C109.363 87 130.307 83.8545 145.238 78.9064C152.73 76.4235 158.432 73.5767 162.158 70.6577C165.943 67.6919 167 65.2337 167 63.5C167 61.7663 165.943 59.3082 162.158 56.3423C158.432 53.4233 152.73 50.5765 145.238 48.0936C140.089 46.3872 134.225 44.8952 127.793 43.6726Z" fill="#000000"/>
<path fill-rule="evenodd" clip-rule="evenodd" d="M124 43C123.726 21.856 106.932 5 86.5 5C66.0676 5 49.2739 21.856 49.0004 43H44C44.2744 19.2038 63.1972 0 86.5 0C109.803 0 128.726 19.2038 129 43H124Z" fill="#000000"/>
<path fill-rule="evenodd" clip-rule="evenodd" d="M44.017 41C44.0057 41.1753 44 41.3513 44 41.5278C44 51.7297 63.0279 60 86.5 60C109.972 60 129 51.7297 129 41.5278C129 41.3513 128.994 41.1753 128.983 41H123.955C123.987 41.1881 124 41.3641 124 41.5278C124 42.4124 123.609 43.6568 122.077 45.2309C120.522 46.8283 118.029 48.4956 114.559 50.004C107.634 53.014 97.717 55 86.5 55C75.283 55 65.3664 53.014 58.441 50.004C54.9705 48.4956 52.4777 46.8283 50.9232 45.2309C49.3914 43.6568 49 42.4124 49 41.5278C49 41.3641 49.0134 41.1881 49.0449 41H44.017Z" fill="#000000"/>
<circle cx="56" cy="71" r="2" fill="#000000"/>
<circle cx="140" cy="63" r="2" fill="#000000"/>
<circle cx="116" cy="71" r="2" fill="#000000"/>
<circle cx="86" cy="73" r="2" fill="#000000"/>
<circle cx="34" cy="63" r="2" fill="#000000"/>
<path d="M141.018 158.048C141.52 159.335 142.969 159.971 144.256 159.47C145.542 158.968 146.178 157.519 145.677 156.232L141.018 158.048ZM113.671 87.9082L141.018 158.048L145.677 156.232L118.329 86.0918L113.671 87.9082Z" fill="#000000"/>
<path d="M26.6633 157.111C26.1725 158.402 26.8208 159.846 28.1114 160.337C29.4019 160.828 30.846 160.179 31.3367 158.889L26.6633 157.111ZM53.6633 86.1114L26.6633 157.111L31.3367 158.889L58.3367 87.8886L53.6633 86.1114Z" fill="#000000"/>
<circle cx="94.9753" cy="112.582" r="5.70468" transform="rotate(30.1258 94.9753 112.582)" stroke="#000000" stroke-width="4.07477"/>
<line x1="83.7182" y1="131.981" x2="93.1346" y2="115.754" stroke="#000000" stroke-width="4.07477"/>
<path d="M99.7104 127.861C98.4044 128.128 97.2552 128.3 96.7414 128.211C95.0587 127.923 89.458 121.966 89.458 121.966C89.458 121.966 81.9242 120 81.2342 119.213C80.8294 118.751 79.9323 115.66 79.2599 113.284M99.7104 127.861C102.682 127.253 106.466 126.153 105.424 126.5L99.7104 127.861ZM79.2599 113.284C78.7863 111.611 78.4242 110.293 78.4242 110.5L79.2599 113.284ZM70.2275 138C71.4204 136.087 72.9733 133.507 73.6672 132.253C74.9103 130.006 84.5451 130.556 84.5451 130.556C84.5451 130.556 82.6376 135.586 82.5309 137.043C82.4761 137.79 83.7654 140.392 84.9786 142.614M70.2275 138C69.2835 139.514 68.5651 140.611 68.6767 140.303L70.2275 138ZM84.9786 142.614C86.1302 144.723 87.2133 146.491 87.0131 146.007L84.9786 142.614Z" stroke="#000000" stroke-width="4.07477"/>
</svg>
